<mxfile host="app.diagrams.net" modified="2023-06-13T09:16:45.420Z" agent="Mozilla/5.0 (Windows NT 10.0; Win64; x64; rv:109.0) Gecko/20100101 Firefox/114.0" version="21.3.8" etag="MN-1ilg5IP_ppjrmZ-NB" type="github">
  <diagram name="Pagina-1" id="TeMVZNCcZgpZDrzHFS8o">
    <mxGraphModel>
      <root>
        <mxCell id="0" />
        <mxCell id="1" parent="0" />
      </root>
    </mxGraphModel>
  </diagram>
</mxfile>
